 <svg
    viewBox="0 0 1024 1024"
    xmlns="http://www.w3.org/2000/svg"
    fill="white"
    width="100%"
    height="100%"
  >
    <polygon fill="white" points="229.0,313.0 228.0,314.0 227.0,314.0 226.0,315.0 225.0,315.0 222.0,318.0 222.0,319.0 219.0,322.0 219.0,323.0 217.0,325.0 217.0,326.0 214.0,329.0 214.0,330.0 212.0,332.0 212.0,333.0 209.0,336.0 209.0,337.0 206.0,340.0 206.0,341.0 204.0,343.0 204.0,344.0 201.0,347.0 201.0,348.0 199.0,350.0 199.0,351.0 196.0,354.0 196.0,355.0 193.0,358.0 193.0,359.0 191.0,361.0 191.0,362.0 188.0,365.0 188.0,366.0 186.0,368.0 186.0,369.0 183.0,372.0 183.0,373.0 181.0,375.0 181.0,376.0 178.0,379.0 178.0,380.0 175.0,383.0 175.0,384.0 173.0,386.0 173.0,387.0 170.0,390.0 170.0,391.0 168.0,393.0 168.0,394.0 165.0,397.0 165.0,398.0 163.0,400.0 163.0,401.0 160.0,404.0 160.0,405.0 158.0,407.0 158.0,408.0 155.0,411.0 155.0,412.0 153.0,414.0 153.0,415.0 150.0,418.0 150.0,419.0 148.0,421.0 148.0,422.0 145.0,425.0 145.0,426.0 142.0,429.0 142.0,430.0 140.0,432.0 140.0,433.0 137.0,436.0 137.0,437.0 134.0,440.0 134.0,441.0 131.0,444.0 131.0,445.0 129.0,447.0 129.0,448.0 126.0,451.0 126.0,452.0 123.0,455.0 123.0,456.0 120.0,459.0 120.0,460.0 117.0,463.0 117.0,464.0 114.0,467.0 114.0,468.0 111.0,471.0 111.0,472.0 108.0,475.0 108.0,476.0 105.0,479.0 105.0,480.0 102.0,483.0 102.0,484.0 99.0,487.0 99.0,488.0 95.0,492.0 95.0,493.0 94.0,494.0 94.0,495.0 93.0,496.0 93.0,497.0 92.0,498.0 92.0,504.0 94.0,506.0 94.0,507.0 95.0,508.0 95.0,509.0 98.0,512.0 98.0,513.0 101.0,516.0 101.0,517.0 103.0,519.0 103.0,520.0 106.0,523.0 106.0,524.0 108.0,526.0 108.0,527.0 111.0,530.0 111.0,531.0 113.0,533.0 113.0,534.0 116.0,537.0 116.0,538.0 118.0,540.0 118.0,541.0 120.0,543.0 120.0,544.0 123.0,547.0 123.0,548.0 125.0,550.0 125.0,551.0 128.0,554.0 128.0,555.0 130.0,557.0 130.0,558.0 133.0,561.0 133.0,562.0 135.0,564.0 135.0,565.0 138.0,568.0 138.0,569.0 140.0,571.0 140.0,572.0 143.0,575.0 143.0,576.0 145.0,578.0 145.0,579.0 148.0,582.0 148.0,583.0 150.0,585.0 150.0,586.0 153.0,589.0 153.0,590.0 156.0,593.0 156.0,594.0 158.0,596.0 158.0,597.0 161.0,600.0 161.0,601.0 164.0,604.0 164.0,605.0 166.0,607.0 166.0,608.0 169.0,611.0 169.0,612.0 171.0,614.0 171.0,615.0 174.0,618.0 174.0,619.0 177.0,622.0 177.0,623.0 179.0,625.0 179.0,626.0 182.0,629.0 182.0,630.0 185.0,633.0 185.0,634.0 187.0,636.0 187.0,637.0 190.0,640.0 190.0,641.0 192.0,643.0 192.0,644.0 195.0,647.0 195.0,648.0 197.0,650.0 197.0,651.0 200.0,654.0 200.0,655.0 203.0,658.0 203.0,659.0 205.0,661.0 205.0,662.0 208.0,665.0 208.0,666.0 210.0,668.0 210.0,669.0 213.0,672.0 213.0,673.0 215.0,675.0 215.0,676.0 217.0,678.0 217.0,679.0 220.0,682.0 220.0,683.0 223.0,686.0 223.0,687.0 227.0,691.0 228.0,691.0 229.0,692.0 231.0,692.0 232.0,693.0 277.0,693.0 278.0,692.0 279.0,692.0 279.0,691.0 280.0,690.0 280.0,686.0 279.0,685.0 279.0,684.0 277.0,682.0 277.0,681.0 274.0,678.0 274.0,677.0 272.0,675.0 272.0,674.0 270.0,672.0 270.0,671.0 267.0,668.0 267.0,667.0 265.0,665.0 265.0,664.0 262.0,661.0 262.0,660.0 260.0,658.0 260.0,657.0 257.0,654.0 257.0,653.0 255.0,651.0 255.0,650.0 252.0,647.0 252.0,646.0 250.0,644.0 250.0,643.0 247.0,640.0 247.0,639.0 245.0,637.0 245.0,636.0 243.0,634.0 243.0,633.0 240.0,630.0 240.0,629.0 238.0,627.0 238.0,626.0 235.0,623.0 235.0,622.0 233.0,620.0 233.0,619.0 230.0,616.0 230.0,615.0 228.0,613.0 228.0,612.0 225.0,609.0 225.0,608.0 222.0,605.0 222.0,604.0 220.0,602.0 220.0,601.0 217.0,598.0 217.0,597.0 214.0,594.0 214.0,593.0 212.0,591.0 212.0,590.0 209.0,587.0 209.0,586.0 206.0,583.0 206.0,582.0 203.0,579.0 203.0,578.0 200.0,575.0 200.0,574.0 197.0,571.0 197.0,570.0 195.0,568.0 195.0,567.0 192.0,564.0 192.0,563.0 189.0,560.0 189.0,559.0 187.0,557.0 187.0,556.0 184.0,553.0 184.0,552.0 182.0,550.0 182.0,549.0 179.0,546.0 179.0,545.0 176.0,542.0 176.0,541.0 174.0,539.0 174.0,538.0 171.0,535.0 171.0,534.0 168.0,531.0 168.0,530.0 166.0,528.0 166.0,527.0 163.0,524.0 163.0,523.0 160.0,520.0 160.0,519.0 158.0,517.0 158.0,516.0 155.0,513.0 155.0,512.0 152.0,509.0 152.0,508.0 149.0,505.0 149.0,504.0 147.0,502.0 147.0,501.0 148.0,500.0 148.0,499.0 150.0,497.0 150.0,496.0 153.0,493.0 153.0,492.0 155.0,490.0 155.0,489.0 158.0,486.0 158.0,485.0 161.0,482.0 161.0,481.0 164.0,478.0 164.0,477.0 166.0,475.0 166.0,474.0 169.0,471.0 169.0,470.0 172.0,467.0 172.0,466.0 174.0,464.0 174.0,463.0 177.0,460.0 177.0,459.0 179.0,457.0 179.0,456.0 182.0,453.0 182.0,452.0 184.0,450.0 184.0,449.0 187.0,446.0 187.0,445.0 189.0,443.0 189.0,442.0 192.0,439.0 192.0,438.0 194.0,436.0 194.0,435.0 197.0,432.0 197.0,431.0 199.0,429.0 199.0,428.0 202.0,425.0 202.0,424.0 204.0,422.0 204.0,421.0 207.0,418.0 207.0,417.0 209.0,415.0 209.0,414.0 212.0,411.0 212.0,410.0 214.0,408.0 214.0,407.0 217.0,404.0 217.0,403.0 219.0,401.0 219.0,400.0 222.0,397.0 222.0,396.0 224.0,394.0 224.0,393.0 227.0,390.0 227.0,389.0 229.0,387.0 229.0,386.0 232.0,383.0 232.0,382.0 234.0,380.0 234.0,379.0 237.0,376.0 237.0,375.0 239.0,373.0 239.0,372.0 242.0,369.0 242.0,368.0 244.0,366.0 244.0,365.0 247.0,362.0 247.0,361.0 249.0,359.0 249.0,358.0 252.0,355.0 252.0,354.0 254.0,352.0 254.0,351.0 257.0,348.0 257.0,347.0 259.0,345.0 259.0,344.0 261.0,342.0 261.0,341.0 264.0,338.0 264.0,337.0 266.0,335.0 266.0,334.0 268.0,332.0 268.0,331.0 271.0,328.0 271.0,327.0 273.0,325.0 273.0,324.0 275.0,322.0 275.0,321.0 276.0,320.0 276.0,315.0 274.0,313.0" /><polygon fill="white" points="748.0,312.0 747.0,313.0 745.0,313.0 743.0,315.0 743.0,320.0 745.0,322.0 745.0,323.0 748.0,326.0 748.0,327.0 750.0,329.0 750.0,330.0 753.0,333.0 753.0,334.0 755.0,336.0 755.0,337.0 757.0,339.0 757.0,340.0 760.0,343.0 760.0,344.0 762.0,346.0 762.0,347.0 765.0,350.0 765.0,351.0 767.0,353.0 767.0,354.0 770.0,357.0 770.0,358.0 772.0,360.0 772.0,361.0 775.0,364.0 775.0,365.0 777.0,367.0 777.0,368.0 780.0,371.0 780.0,372.0 782.0,374.0 782.0,375.0 785.0,378.0 785.0,379.0 787.0,381.0 787.0,382.0 790.0,385.0 790.0,386.0 792.0,388.0 792.0,389.0 795.0,392.0 795.0,393.0 798.0,396.0 798.0,397.0 800.0,399.0 800.0,400.0 803.0,403.0 803.0,404.0 805.0,406.0 805.0,407.0 808.0,410.0 808.0,411.0 810.0,413.0 810.0,414.0 813.0,417.0 813.0,418.0 815.0,420.0 815.0,421.0 818.0,424.0 818.0,425.0 821.0,428.0 821.0,429.0 823.0,431.0 823.0,432.0 826.0,435.0 826.0,436.0 828.0,438.0 828.0,439.0 831.0,442.0 831.0,443.0 834.0,446.0 834.0,447.0 836.0,449.0 836.0,450.0 839.0,453.0 839.0,454.0 842.0,457.0 842.0,458.0 845.0,461.0 845.0,462.0 847.0,464.0 847.0,465.0 850.0,468.0 850.0,469.0 852.0,471.0 852.0,472.0 855.0,475.0 855.0,476.0 858.0,479.0 858.0,480.0 861.0,483.0 861.0,484.0 863.0,486.0 863.0,487.0 866.0,490.0 866.0,491.0 869.0,494.0 869.0,495.0 871.0,497.0 871.0,498.0 873.0,500.0 873.0,503.0 871.0,505.0 871.0,506.0 868.0,509.0 868.0,510.0 865.0,513.0 865.0,514.0 862.0,517.0 862.0,518.0 860.0,520.0 860.0,521.0 857.0,524.0 857.0,525.0 855.0,527.0 855.0,528.0 852.0,531.0 852.0,532.0 849.0,535.0 849.0,536.0 847.0,538.0 847.0,539.0 844.0,542.0 844.0,543.0 841.0,546.0 841.0,547.0 839.0,549.0 839.0,550.0 836.0,553.0 836.0,554.0 833.0,557.0 833.0,558.0 831.0,560.0 831.0,561.0 828.0,564.0 828.0,565.0 826.0,567.0 826.0,568.0 823.0,571.0 823.0,572.0 820.0,575.0 820.0,576.0 818.0,578.0 818.0,579.0 815.0,582.0 815.0,583.0 813.0,585.0 813.0,586.0 810.0,589.0 810.0,590.0 808.0,592.0 808.0,593.0 805.0,596.0 805.0,597.0 802.0,600.0 802.0,601.0 800.0,603.0 800.0,604.0 797.0,607.0 797.0,608.0 795.0,610.0 795.0,611.0 792.0,614.0 792.0,615.0 790.0,617.0 790.0,618.0 787.0,621.0 787.0,622.0 785.0,624.0 785.0,625.0 782.0,628.0 782.0,629.0 780.0,631.0 780.0,632.0 777.0,635.0 777.0,636.0 775.0,638.0 775.0,639.0 772.0,642.0 772.0,643.0 770.0,645.0 770.0,646.0 768.0,648.0 768.0,649.0 765.0,652.0 765.0,653.0 763.0,655.0 763.0,656.0 760.0,659.0 760.0,660.0 758.0,662.0 758.0,663.0 756.0,665.0 756.0,666.0 753.0,669.0 753.0,670.0 751.0,672.0 751.0,673.0 748.0,676.0 748.0,677.0 746.0,679.0 746.0,680.0 743.0,683.0 743.0,684.0 742.0,685.0 742.0,686.0 741.0,687.0 741.0,688.0 742.0,689.0 742.0,690.0 745.0,693.0 787.0,693.0 788.0,692.0 791.0,692.0 792.0,691.0 793.0,691.0 794.0,690.0 795.0,690.0 797.0,688.0 797.0,687.0 800.0,684.0 800.0,683.0 802.0,681.0 802.0,680.0 805.0,677.0 805.0,676.0 807.0,674.0 807.0,673.0 810.0,670.0 810.0,669.0 812.0,667.0 812.0,666.0 816.0,662.0 816.0,661.0 818.0,659.0 818.0,658.0 821.0,655.0 821.0,654.0 824.0,651.0 824.0,650.0 826.0,648.0 826.0,647.0 829.0,644.0 829.0,643.0 832.0,640.0 832.0,639.0 835.0,636.0 835.0,635.0 837.0,633.0 837.0,632.0 840.0,629.0 840.0,628.0 843.0,625.0 843.0,624.0 846.0,621.0 846.0,620.0 848.0,618.0 848.0,617.0 851.0,614.0 851.0,613.0 854.0,610.0 854.0,609.0 857.0,606.0 857.0,605.0 860.0,602.0 860.0,601.0 862.0,599.0 862.0,598.0 865.0,595.0 865.0,594.0 867.0,592.0 867.0,591.0 870.0,588.0 870.0,587.0 872.0,585.0 872.0,584.0 875.0,581.0 875.0,580.0 878.0,577.0 878.0,576.0 880.0,574.0 880.0,573.0 882.0,571.0 882.0,570.0 885.0,567.0 885.0,566.0 888.0,563.0 888.0,562.0 890.0,560.0 890.0,559.0 892.0,557.0 892.0,556.0 895.0,553.0 895.0,552.0 897.0,550.0 897.0,549.0 900.0,546.0 900.0,545.0 903.0,542.0 903.0,541.0 905.0,539.0 905.0,538.0 907.0,536.0 907.0,535.0 910.0,532.0 910.0,531.0 912.0,529.0 912.0,528.0 915.0,525.0 915.0,524.0 917.0,522.0 917.0,521.0 920.0,518.0 920.0,517.0 922.0,515.0 922.0,514.0 925.0,511.0 925.0,510.0 927.0,508.0 927.0,507.0 928.0,506.0 928.0,505.0 929.0,504.0 929.0,498.0 928.0,497.0 928.0,495.0 925.0,492.0 925.0,491.0 922.0,488.0 922.0,487.0 919.0,484.0 919.0,483.0 916.0,480.0 916.0,479.0 913.0,476.0 913.0,475.0 910.0,472.0 910.0,471.0 907.0,468.0 907.0,467.0 904.0,464.0 904.0,463.0 901.0,460.0 901.0,459.0 898.0,456.0 898.0,455.0 895.0,452.0 895.0,451.0 892.0,448.0 892.0,447.0 889.0,444.0 889.0,443.0 886.0,440.0 886.0,439.0 883.0,436.0 883.0,435.0 880.0,432.0 880.0,431.0 877.0,428.0 877.0,427.0 875.0,425.0 875.0,424.0 872.0,421.0 872.0,420.0 869.0,417.0 869.0,416.0 866.0,413.0 866.0,412.0 864.0,410.0 864.0,409.0 861.0,406.0 861.0,405.0 858.0,402.0 858.0,401.0 856.0,399.0 856.0,398.0 853.0,395.0 853.0,394.0 850.0,391.0 850.0,390.0 847.0,387.0 847.0,386.0 844.0,383.0 844.0,382.0 842.0,380.0 842.0,379.0 839.0,376.0 839.0,375.0 836.0,372.0 836.0,371.0 833.0,368.0 833.0,367.0 831.0,365.0 831.0,364.0 828.0,361.0 828.0,360.0 825.0,357.0 825.0,356.0 822.0,353.0 822.0,352.0 819.0,349.0 819.0,348.0 817.0,346.0 817.0,345.0 814.0,342.0 814.0,341.0 811.0,338.0 811.0,337.0 809.0,335.0 809.0,334.0 806.0,331.0 806.0,330.0 803.0,327.0 803.0,326.0 800.0,323.0 800.0,322.0 797.0,319.0 797.0,318.0 793.0,314.0 792.0,314.0 791.0,313.0 788.0,313.0 787.0,312.0" /><polygon fill="white" points="397.0,174.0 396.0,175.0 395.0,175.0 394.0,176.0 393.0,176.0 388.0,181.0 388.0,182.0 387.0,183.0 387.0,184.0 386.0,185.0 386.0,188.0 385.0,189.0 385.0,195.0 384.0,196.0 384.0,201.0 385.0,202.0 385.0,208.0 386.0,209.0 386.0,212.0 387.0,213.0 387.0,216.0 388.0,217.0 388.0,220.0 380.0,228.0 380.0,229.0 374.0,235.0 374.0,236.0 371.0,239.0 371.0,240.0 368.0,243.0 368.0,244.0 367.0,245.0 367.0,247.0 366.0,248.0 366.0,250.0 365.0,251.0 365.0,255.0 364.0,256.0 364.0,277.0 363.0,278.0 363.0,279.0 348.0,294.0 347.0,294.0 330.0,311.0 330.0,312.0 325.0,317.0 325.0,318.0 322.0,321.0 322.0,322.0 320.0,324.0 320.0,325.0 319.0,326.0 319.0,328.0 318.0,329.0 318.0,332.0 317.0,333.0 317.0,342.0 318.0,343.0 318.0,345.0 319.0,346.0 319.0,347.0 321.0,349.0 321.0,350.0 328.0,357.0 329.0,357.0 331.0,359.0 332.0,359.0 334.0,361.0 335.0,361.0 336.0,362.0 337.0,362.0 338.0,363.0 339.0,363.0 340.0,364.0 341.0,364.0 342.0,365.0 344.0,365.0 345.0,366.0 347.0,366.0 348.0,367.0 350.0,367.0 351.0,368.0 353.0,368.0 354.0,369.0 357.0,369.0 358.0,370.0 362.0,370.0 363.0,371.0 374.0,371.0 375.0,372.0 380.0,372.0 381.0,373.0 381.0,374.0 380.0,375.0 380.0,376.0 379.0,377.0 379.0,379.0 378.0,380.0 378.0,382.0 377.0,383.0 377.0,386.0 376.0,387.0 376.0,390.0 375.0,391.0 375.0,395.0 374.0,396.0 374.0,400.0 373.0,401.0 373.0,406.0 372.0,407.0 372.0,413.0 371.0,414.0 371.0,422.0 370.0,423.0 370.0,434.0 369.0,435.0 369.0,487.0 370.0,488.0 370.0,498.0 371.0,499.0 371.0,507.0 372.0,508.0 372.0,518.0 373.0,519.0 373.0,530.0 374.0,531.0 374.0,545.0 375.0,546.0 375.0,561.0 376.0,562.0 376.0,607.0 375.0,608.0 375.0,617.0 374.0,618.0 374.0,623.0 373.0,624.0 373.0,627.0 372.0,628.0 372.0,630.0 371.0,631.0 371.0,632.0 370.0,633.0 370.0,635.0 368.0,637.0 368.0,638.0 358.0,648.0 357.0,648.0 353.0,652.0 352.0,652.0 349.0,655.0 348.0,655.0 346.0,657.0 345.0,657.0 344.0,658.0 343.0,658.0 341.0,660.0 340.0,660.0 338.0,662.0 337.0,662.0 336.0,663.0 335.0,663.0 334.0,664.0 333.0,664.0 331.0,666.0 330.0,666.0 329.0,667.0 328.0,667.0 327.0,668.0 326.0,668.0 325.0,669.0 324.0,669.0 323.0,670.0 322.0,670.0 321.0,671.0 319.0,671.0 318.0,672.0 317.0,672.0 316.0,673.0 314.0,673.0 313.0,674.0 312.0,674.0 311.0,675.0 309.0,675.0 308.0,676.0 307.0,676.0 305.0,678.0 304.0,678.0 300.0,682.0 300.0,683.0 299.0,684.0 299.0,685.0 298.0,686.0 298.0,689.0 297.0,690.0 297.0,697.0 298.0,698.0 298.0,699.0 302.0,703.0 303.0,703.0 305.0,705.0 308.0,705.0 309.0,706.0 315.0,706.0 316.0,707.0 322.0,707.0 323.0,706.0 330.0,706.0 331.0,705.0 335.0,705.0 336.0,704.0 339.0,704.0 340.0,703.0 343.0,703.0 344.0,702.0 346.0,702.0 347.0,701.0 348.0,701.0 349.0,700.0 351.0,700.0 352.0,699.0 353.0,699.0 354.0,698.0 355.0,698.0 356.0,697.0 357.0,697.0 358.0,696.0 359.0,696.0 360.0,695.0 361.0,695.0 362.0,694.0 363.0,694.0 365.0,692.0 366.0,692.0 367.0,691.0 368.0,691.0 369.0,690.0 370.0,691.0 370.0,693.0 354.0,709.0 353.0,709.0 348.0,714.0 347.0,714.0 344.0,717.0 343.0,717.0 341.0,719.0 340.0,719.0 338.0,721.0 337.0,721.0 335.0,723.0 334.0,723.0 333.0,724.0 332.0,724.0 331.0,725.0 330.0,725.0 329.0,726.0 328.0,726.0 327.0,727.0 326.0,727.0 325.0,728.0 324.0,728.0 323.0,729.0 322.0,729.0 321.0,730.0 320.0,730.0 319.0,731.0 317.0,731.0 315.0,733.0 314.0,733.0 313.0,734.0 312.0,734.0 311.0,735.0 310.0,735.0 308.0,737.0 307.0,737.0 304.0,740.0 303.0,740.0 293.0,750.0 293.0,751.0 291.0,753.0 291.0,755.0 290.0,756.0 290.0,766.0 291.0,767.0 291.0,769.0 292.0,770.0 292.0,771.0 299.0,778.0 300.0,778.0 301.0,779.0 302.0,779.0 303.0,780.0 304.0,780.0 305.0,781.0 308.0,781.0 309.0,782.0 326.0,782.0 327.0,781.0 330.0,781.0 331.0,780.0 333.0,780.0 334.0,779.0 336.0,779.0 337.0,778.0 339.0,778.0 340.0,777.0 341.0,777.0 342.0,776.0 343.0,776.0 344.0,775.0 345.0,775.0 346.0,774.0 347.0,774.0 349.0,772.0 350.0,772.0 352.0,770.0 353.0,770.0 355.0,768.0 356.0,768.0 359.0,765.0 360.0,765.0 363.0,762.0 364.0,762.0 368.0,758.0 369.0,758.0 374.0,753.0 375.0,753.0 394.0,734.0 394.0,733.0 398.0,729.0 398.0,728.0 402.0,724.0 402.0,723.0 405.0,720.0 405.0,719.0 406.0,718.0 406.0,717.0 408.0,715.0 409.0,715.0 410.0,714.0 411.0,714.0 412.0,713.0 413.0,713.0 414.0,712.0 416.0,712.0 417.0,711.0 421.0,711.0 422.0,710.0 427.0,710.0 428.0,709.0 432.0,709.0 433.0,708.0 437.0,708.0 438.0,707.0 441.0,707.0 442.0,706.0 445.0,706.0 446.0,705.0 449.0,705.0 450.0,704.0 452.0,704.0 453.0,703.0 456.0,703.0 457.0,702.0 459.0,702.0 460.0,701.0 463.0,701.0 464.0,702.0 467.0,702.0 468.0,703.0 472.0,703.0 473.0,704.0 477.0,704.0 478.0,705.0 481.0,705.0 482.0,706.0 486.0,706.0 487.0,707.0 490.0,707.0 491.0,708.0 495.0,708.0 496.0,709.0 499.0,709.0 500.0,710.0 504.0,710.0 505.0,711.0 508.0,711.0 509.0,712.0 513.0,712.0 514.0,713.0 517.0,713.0 518.0,714.0 523.0,714.0 525.0,716.0 525.0,717.0 524.0,718.0 524.0,721.0 523.0,722.0 523.0,726.0 522.0,727.0 522.0,732.0 521.0,733.0 521.0,743.0 520.0,744.0 520.0,766.0 519.0,767.0 520.0,768.0 519.0,769.0 519.0,777.0 518.0,778.0 518.0,782.0 517.0,783.0 517.0,786.0 516.0,787.0 516.0,789.0 515.0,790.0 515.0,792.0 514.0,793.0 514.0,795.0 513.0,796.0 513.0,797.0 512.0,798.0 512.0,799.0 511.0,800.0 511.0,801.0 510.0,802.0 510.0,803.0 509.0,804.0 509.0,805.0 508.0,806.0 508.0,807.0 507.0,808.0 507.0,809.0 505.0,811.0 505.0,812.0 504.0,813.0 504.0,814.0 503.0,815.0 503.0,816.0 501.0,818.0 501.0,819.0 500.0,820.0 500.0,821.0 499.0,822.0 499.0,824.0 498.0,825.0 498.0,827.0 497.0,828.0 497.0,839.0 498.0,840.0 498.0,841.0 499.0,842.0 499.0,843.0 503.0,847.0 504.0,847.0 505.0,848.0 506.0,848.0 507.0,849.0 508.0,849.0 509.0,850.0 512.0,850.0 513.0,851.0 525.0,851.0 526.0,850.0 529.0,850.0 530.0,849.0 532.0,849.0 533.0,848.0 534.0,848.0 535.0,847.0 536.0,847.0 537.0,846.0 538.0,846.0 541.0,843.0 542.0,843.0 548.0,837.0 548.0,836.0 549.0,835.0 550.0,835.0 551.0,834.0 554.0,834.0 555.0,833.0 557.0,833.0 558.0,832.0 559.0,832.0 561.0,830.0 562.0,830.0 567.0,825.0 567.0,824.0 568.0,823.0 568.0,822.0 569.0,821.0 569.0,820.0 570.0,819.0 570.0,817.0 571.0,816.0 571.0,813.0 572.0,812.0 572.0,788.0 573.0,787.0 573.0,780.0 574.0,779.0 574.0,776.0 575.0,775.0 575.0,773.0 576.0,772.0 576.0,770.0 577.0,769.0 577.0,767.0 578.0,766.0 578.0,765.0 579.0,764.0 579.0,763.0 580.0,762.0 580.0,761.0 581.0,760.0 581.0,759.0 583.0,757.0 583.0,756.0 585.0,754.0 585.0,753.0 587.0,751.0 588.0,751.0 589.0,750.0 593.0,750.0 594.0,749.0 597.0,749.0 598.0,748.0 602.0,748.0 603.0,747.0 605.0,747.0 606.0,746.0 609.0,746.0 610.0,745.0 612.0,745.0 613.0,744.0 616.0,744.0 617.0,743.0 619.0,743.0 620.0,742.0 622.0,742.0 623.0,741.0 624.0,741.0 625.0,740.0 627.0,740.0 628.0,739.0 630.0,739.0 631.0,738.0 632.0,738.0 633.0,737.0 635.0,737.0 636.0,736.0 637.0,736.0 638.0,735.0 639.0,735.0 640.0,734.0 641.0,734.0 642.0,733.0 643.0,733.0 644.0,732.0 645.0,732.0 646.0,731.0 647.0,731.0 648.0,730.0 649.0,730.0 651.0,728.0 652.0,728.0 653.0,727.0 654.0,727.0 655.0,726.0 656.0,726.0 658.0,724.0 659.0,724.0 661.0,722.0 662.0,722.0 664.0,720.0 665.0,720.0 667.0,718.0 668.0,718.0 671.0,715.0 672.0,715.0 675.0,712.0 676.0,712.0 680.0,708.0 681.0,708.0 686.0,703.0 687.0,703.0 706.0,684.0 706.0,683.0 710.0,679.0 710.0,678.0 712.0,676.0 712.0,675.0 714.0,673.0 714.0,672.0 716.0,670.0 716.0,669.0 717.0,668.0 717.0,667.0 719.0,665.0 719.0,664.0 720.0,663.0 720.0,662.0 721.0,661.0 721.0,660.0 722.0,659.0 722.0,658.0 723.0,657.0 723.0,656.0 724.0,655.0 724.0,654.0 725.0,653.0 725.0,652.0 726.0,651.0 726.0,650.0 727.0,649.0 727.0,647.0 728.0,646.0 728.0,645.0 729.0,644.0 729.0,642.0 730.0,641.0 730.0,640.0 731.0,639.0 731.0,637.0 732.0,636.0 732.0,634.0 733.0,633.0 733.0,632.0 734.0,631.0 734.0,629.0 735.0,628.0 735.0,626.0 736.0,625.0 736.0,623.0 737.0,622.0 737.0,619.0 738.0,618.0 738.0,616.0 739.0,615.0 739.0,612.0 740.0,611.0 740.0,608.0 741.0,607.0 741.0,603.0 742.0,602.0 742.0,598.0 743.0,597.0 743.0,591.0 744.0,590.0 744.0,583.0 745.0,582.0 745.0,568.0 746.0,567.0 746.0,554.0 745.0,553.0 745.0,540.0 744.0,539.0 744.0,532.0 743.0,531.0 743.0,526.0 742.0,525.0 742.0,520.0 741.0,519.0 741.0,515.0 740.0,514.0 740.0,510.0 739.0,509.0 739.0,506.0 738.0,505.0 738.0,502.0 737.0,501.0 737.0,498.0 736.0,497.0 736.0,494.0 735.0,493.0 735.0,491.0 734.0,490.0 734.0,488.0 733.0,487.0 733.0,485.0 732.0,484.0 732.0,482.0 731.0,481.0 731.0,479.0 730.0,478.0 730.0,476.0 729.0,475.0 729.0,474.0 728.0,473.0 728.0,471.0 727.0,470.0 727.0,468.0 726.0,467.0 726.0,466.0 725.0,465.0 725.0,463.0 724.0,462.0 724.0,461.0 723.0,460.0 723.0,459.0 722.0,458.0 722.0,456.0 721.0,455.0 721.0,454.0 720.0,453.0 720.0,452.0 719.0,451.0 719.0,450.0 718.0,449.0 718.0,448.0 717.0,447.0 717.0,446.0 716.0,445.0 716.0,444.0 715.0,443.0 715.0,442.0 713.0,440.0 713.0,439.0 712.0,438.0 712.0,437.0 710.0,435.0 710.0,434.0 709.0,433.0 709.0,432.0 708.0,431.0 708.0,429.0 707.0,428.0 707.0,427.0 706.0,426.0 706.0,424.0 705.0,423.0 705.0,422.0 704.0,421.0 704.0,418.0 703.0,417.0 703.0,415.0 702.0,414.0 702.0,412.0 701.0,411.0 701.0,408.0 700.0,407.0 700.0,405.0 699.0,404.0 699.0,402.0 698.0,401.0 698.0,399.0 697.0,398.0 697.0,397.0 696.0,396.0 696.0,394.0 695.0,393.0 695.0,391.0 694.0,390.0 694.0,389.0 693.0,388.0 693.0,387.0 692.0,386.0 692.0,384.0 691.0,383.0 691.0,382.0 690.0,381.0 690.0,380.0 689.0,379.0 689.0,378.0 688.0,377.0 688.0,376.0 687.0,375.0 687.0,374.0 686.0,373.0 686.0,372.0 685.0,371.0 685.0,370.0 684.0,369.0 684.0,368.0 682.0,366.0 682.0,365.0 681.0,364.0 681.0,363.0 679.0,361.0 679.0,360.0 677.0,358.0 677.0,357.0 674.0,354.0 674.0,353.0 671.0,350.0 671.0,349.0 667.0,345.0 667.0,344.0 648.0,325.0 647.0,325.0 635.0,313.0 635.0,312.0 632.0,309.0 632.0,308.0 630.0,306.0 630.0,305.0 629.0,304.0 629.0,303.0 627.0,301.0 627.0,300.0 626.0,299.0 626.0,298.0 625.0,297.0 625.0,296.0 624.0,295.0 624.0,294.0 623.0,293.0 623.0,291.0 622.0,290.0 622.0,289.0 621.0,288.0 621.0,286.0 620.0,285.0 620.0,284.0 619.0,283.0 619.0,281.0 618.0,280.0 618.0,278.0 617.0,277.0 617.0,275.0 616.0,274.0 616.0,273.0 615.0,272.0 615.0,270.0 614.0,269.0 614.0,267.0 613.0,266.0 613.0,265.0 612.0,264.0 612.0,263.0 611.0,262.0 611.0,260.0 610.0,259.0 610.0,258.0 609.0,257.0 609.0,256.0 608.0,255.0 608.0,254.0 607.0,253.0 607.0,252.0 605.0,250.0 605.0,249.0 604.0,248.0 604.0,247.0 602.0,245.0 602.0,244.0 601.0,243.0 601.0,242.0 599.0,240.0 599.0,239.0 596.0,236.0 596.0,235.0 593.0,232.0 593.0,231.0 584.0,222.0 583.0,222.0 581.0,220.0 581.0,216.0 580.0,215.0 580.0,211.0 579.0,210.0 579.0,207.0 578.0,206.0 578.0,204.0 577.0,203.0 577.0,202.0 576.0,201.0 576.0,200.0 574.0,198.0 574.0,197.0 569.0,192.0 568.0,192.0 567.0,191.0 566.0,191.0 565.0,190.0 563.0,190.0 562.0,189.0 550.0,189.0 549.0,190.0 547.0,190.0 546.0,191.0 545.0,191.0 544.0,192.0 543.0,192.0 542.0,193.0 541.0,193.0 540.0,194.0 539.0,194.0 538.0,195.0 537.0,195.0 536.0,196.0 531.0,196.0 530.0,195.0 529.0,195.0 528.0,194.0 526.0,194.0 525.0,193.0 523.0,193.0 522.0,192.0 520.0,192.0 519.0,191.0 517.0,191.0 516.0,190.0 513.0,190.0 512.0,189.0 509.0,189.0 508.0,188.0 505.0,188.0 504.0,187.0 499.0,187.0 498.0,186.0 492.0,186.0 491.0,185.0 463.0,185.0 462.0,186.0 455.0,186.0 454.0,187.0 450.0,187.0 449.0,188.0 445.0,188.0 444.0,189.0 442.0,189.0 441.0,190.0 435.0,190.0 434.0,189.0 433.0,189.0 429.0,185.0 428.0,185.0 425.0,182.0 424.0,182.0 422.0,180.0 421.0,180.0 420.0,179.0 419.0,179.0 418.0,178.0 417.0,178.0 416.0,177.0 415.0,177.0 414.0,176.0 412.0,176.0 411.0,175.0 409.0,175.0 408.0,174.0" />
  </svg>